<svg width="1280" height="1861" fill="none" xmlns="http://www.w3.org/2000/svg"><path d="M65.9 492C79.4 591.7 28 583.7.8 567.2v1224.1c0 239.3-13 135.6 0 203 7.9 40.9 50.9-157.1 39.6-203-11.3-45.8-8.5-132 41-150.2 49.5-18.4 56.6-60.5 82-113.7 25.5-53.1 90.6-157.6 249-77 158.5 80.7 263.1 7.4 338.1-65.9 148.6-145.2 400.5.7 470.5 125.1 36.7 65.3-63.5 399.1 0 430.3 31.7 15.5 60 301.3 60-15.6V471.9c-1 13.4-8 36.3-28.3 20.1-60-39.5-35.4-160.6-15.5-216.2 10.8-53.2 14.4-177.8-58-251-85.2-86.3-335.9 80.6-481.3 80.6-158.9 0-236-47.7-330.7-91.7-94.8-44-169.8 31.2-199.5 91.7-29.7 60.4-31.1 84.3-76.4 111.8C2.2 259.3 49 367.4 66 492Z" fill="#FEF3E4"/></svg>