<svg width="320" height="1337" fill="none" xmlns="http://www.w3.org/2000/svg"><path d="M14.9 105.1c3.4 21.3-9.6 19.6-16.4 16v261.6c0 51.1-3.3 938.8 0 953.2 2 8.7 19.2-36.3 16.4-46-2.9-9.9-8.6-45.6 3.9-49.6 12.4-3.9 14.2-12.9 20.6-24.2 6.5-11.4 22.9-33.7 62.8-16.5 39.9 17.3 66.3 1.6 85.1-14 37.5-31.1 101 0 118.6 26.7 9.2 14-16 82.9 0 89.5 8 3.3 15.1 64.4 15.1-3.3V100.8c-.2 2.9-2 7.8-7.1 4.3-15.1-8.4-9-34.3-4-46.2 2.8-11.3 3.7-38-14.6-53.6-21.4-18.4-84.6 17.2-121.2 17.2-40 0-59.5-10.2-83.3-19.6-24-9.4-42.8 6.7-50.3 19.6-7.5 13-7.8 18-19.2 23.9-22.5 9-10.7 32.1-6.4 58.7Z" fill="#FEF3E4"/></svg>