<svg width="768" height="1512" fill="none" xmlns="http://www.w3.org/2000/svg"><path d="M-34.2 275.3c10 55.7-27.6 51.2-47.6 42v684.9c0 133.8-9.5 476.2 0 513.9 5.8 22.9 55.9-95 47.6-120.6-8.3-25.6-24.8-119.3 11.4-129.6 36.2-10.2 41.3-33.8 60-63.6 18.5-29.7 66.1-88.1 182-43 115.7 45.1 192.2 4 247-37 108.6-81.2 292.8.5 344 70 26.8 36.6-46.5 217.2 0 234.6 23.1 8.7 43.8 168.6 43.8-8.7V264c-.7 7.5-5.8 20.3-20.7 11.3-43.8-22.2-25.8-90-11.4-121 8-29.7 10.6-99.5-42.3-140.5C717.3-34.4 534 59 427.8 59 311.7 59 255.3 32.3 186 7.7 116.8-17 62 25 40.2 58.9c-21.7 33.9-22.7 47.2-55.8 62.6-65.1 23.6-31 84-18.6 153.8Z" fill="#FEF3E4"/></svg>
