<svg aria-hidden="true" style="position:absolute;width:0;height:0;overflow:hidden" xmlns="http://www.w3.org/2000/svg"><defs><symbol id="logo" viewBox="0 0 61 32"><path d="M36.152 16.031c0 .254-.008.513 0 .771.077 2.602-.628 4.947-1.762 7.16a28.123 28.123 0 0 0-.987 2.052l-.085.219a2.38 2.38 0 0 1-1.212 1.336l-.014.006a3.416 3.416 0 0 0-.902.655 12.915 12.915 0 0 1-4.115 2.633l-.087.031c-1.014.397-2.055.748-3.158.733-.328 0-.655.116-.983.116-.332 0-.655-.123-.983-.108-1.419.069-2.737-.432-4.04-.96-1.427-.578-2.683-1.484-3.867-2.568-1.669-1.531-2.857-3.454-3.732-5.66a12.64 12.64 0 0 1-.959-3.675l-.005-.057c-.019-.22-.081-.436-.135-.648-.397-1.48-.17-2.93.077-4.403.178-1.26.438-2.378.785-3.458l-.041.146c.925-2.787 2.524-5.141 4.607-6.95l.019-.016a12.414 12.414 0 0 1 5.84-2.837l.078-.012c.65-.127 1.397-.199 2.161-.199 1.841 0 3.584.42 5.138 1.171l-.071-.031c1.172.54 2.275 1.218 3.239 2.12a22.686 22.686 0 0 1 2.436 2.77l.043.06c.694.91 1.187 1.993 1.627 3.104.686 1.727 1.133 3.516 1.091 5.44-.012.355-.004.709-.004 1.06zM35.2 12.53c-.066-.601-.112-1.303-.239-1.982-.366-1.955-1.349-3.481-2.66-4.731-.74-.706-1.55-1.322-2.352-1.951a2.292 2.292 0 0 0-.882-.467l-.016-.004a15.703 15.703 0 0 0-2.399-.381l-.061-.004c-1.427-.077-2.71-.505-3.79-1.65-.794-.84-1.658-.925-2.487-.181-.933.837-2.001 1.33-3.084 1.82-.794.355-1.561.81-2.325 1.253a1.94 1.94 0 0 0-1.002 1.837v-.006l.002.063c0 .462-.232.87-.587 1.113l-.005.003a9.652 9.652 0 0 0-.952.756c-.848.771-1.504 1.631-1.646 2.973-.116 1.06-.389 2.109-1.022 2.98a2.148 2.148 0 0 0-.377 1.04l-.001.008c-.058.794-.031 1.596-.015 2.39.004.216.085.443.181.632.257.525.493.948.748 1.358l-.038-.066c.617.991 1.157 2.005 1.284 3.266a4.392 4.392 0 0 0 1.491 2.972l.005.004c1.253 1.099 2.464 2.267 3.74 3.339.682.578 1.415 1.08 2.313 1.195.906.116 1.789.401 2.599.925.17.104.355.17.547.193 1.141.143 2.198-.181 3.2-.798a15.7 15.7 0 0 1 .964-.54c.783-.401 1.65-.667 2.333-1.23a5.222 5.222 0 0 1 2.414-1.075l.031-.004c.374-.077.682-.254.925-.578.297-.382.567-.787.871-1.157a2.38 2.38 0 0 0 .597-1.319l.001-.011a5.856 5.856 0 0 1 .801-2.301l-.015.026a10.947 10.947 0 0 0 1.232-3.863l.006-.055c.054-.37.081-.682-.077-1.002-.455-.937-.27-2.001-.413-2.996-.077-.54.093-1.126.166-1.797zm-5.509-9.342c-.193-.247-.254-.359-.339-.428-.158-.127-.332-.231-.501-.339-1.434-.929-3.007-1.384-4.615-1.708-.324-.066-.663-.039-.995-.023-.085 0-.189.1-.243.185-.023.039.031.177.077.243.339.472.796.84 1.329 1.064l.02.008c.91.378 1.866.582 2.83.613.409.012.817.1 1.222.166.347.058.694.123 1.214.22zM17.484 30.053c-.964-.91-1.808-1.72-2.668-2.506-.713-.655-1.442-1.288-2.167-1.92-.085-.069-.212-.066-.393-.12.879 1.696 3.809 4.272 5.228 4.546zM10.988 8.867c.582-.509 1.118-1.049 1.712-1.496.829-.617 1.145-1.392.948-2.718-.586.551-1.006 1.218-1.461 1.824-.478.64-.833 1.4-1.234 2.117-.031.058.019.17.039.274zM30.6 28.222c-.54-.039-1.087.069-1.427.405-.648.64-1.415.964-2.198 1.284-.409.166-.798.413-1.184.648-.054.035-.062.204-.054.308.004.035.15.089.208.066.702-.274 1.427-.497 2.093-.864.814-.451 1.581-1.022 2.36-1.55.081-.054.123-.177.2-.293zM9.874 19.354a1.72 1.72 0 0 0-.023 1.146l-.003-.012c.27.867.44 1.781.925 2.537.185.281.224.91.559.771.293-.116-.05-.617-.073-.948-.077-1.28-.659-2.313-1.384-3.493zm5.262-15.938.077.123c.401-.17.81-.335 1.214-.52.871-.405 1.739-.81 2.606-1.234.186-.1.345-.218.486-.355.039-.039.031-.173.019-.254-.008-.039-.089-.077-.135-.077a.748.748 0 0 0-.243.042c-1.28.44-2.389.998-3.406 1.683l.052-.033c-.247.162-.447.413-.671.625zm20.692 13.741c.069-.096.127-.135.131-.181.116-1.396-.015-2.776-.181-4.152-.008-.069-.089-.17-.147-.177-.062-.012-.162.05-.2.116a.804.804 0 0 0-.112.344v.003a15.12 15.12 0 0 0 .193 3.393c.039.224.2.424.316.655zM9.592 13.309c.459-.204.528-.567.578-.898.116-.806.42-1.581.32-2.429-.482 1.014-.906 2.043-.898 3.327zm11.127 17.673c-1.033-.528-1.311-.578-2.228-.436.386.17.74.44 1.091.443.366.008.763.524 1.137-.008z"/><path d="M22.843 20.542c-.706-.015-1.187-.355-1.546-1.01-.335-.613-.891-.929-1.4-1.311-.64-.47-1.164-1.006-1.311-1.97a2.959 2.959 0 0 1 .255-1.753l-.008.018c.209-.444.516-.811.894-1.085l.008-.006c.389-.278.717-.54.898-1.053.204-.59.721-.625 1.18-.733.432-.1.871-.166 1.295-.289.578-.17 1.11-.116 1.534.405.328.405.713.694 1.137.941.447.254.594.551.455 1.083-.096.362-.004.609.116.898.123.316.258.636.347.968.289 1.107-.046 2.04-.948 2.533-.559.305-.987.709-1.126 1.427-.054.289-.212.455-.432.528-.447.15-.898.274-1.349.409zM25.8 15.9c.015-1.951-1.268-3.508-2.938-3.508-1.496 0-3.003 1.164-3.061 3.4-.046 1.793 1.245 3.458 2.934 3.466 2.055.012 3.026-1.631 3.065-3.354zm-6.014 1.866c0-.251.019-.378-.004-.494-.224-1.06-.366-2.109.135-3.131.039-.073-.046-.224-.077-.339-.096.039-.216.046-.289.116a2.61 2.61 0 0 0-.732 1.817c0 .817.373 1.546.959 2.027l.005.004zm3.08-5.868c.347.146.544.251.752.316.763.231 1.415.655 1.87 1.427.089.15.204.378.378.204.089-.093.12-.378.066-.517-.069-.189-.231-.424-.386-.463-.42-.1-.648-.447-.925-.756-.459-.509-.972-.667-1.754-.212zm-.05 7.68-.008-.077c-.22 0-.443-.019-.659.012-.116.015-.216.123-.32.193.096.096.181.251.289.281a2.467 2.467 0 0 0 1.79-.06l-.016.006a.68.68 0 0 0 .278-.193.558.558 0 0 0 .062-.328c-.004-.039-.143-.1-.212-.085-.401.069-.802.162-1.199.247zm3.031-2.005c.413-.085.594-.351.617-.76a7.863 7.863 0 0 0-.012-1.041c-.004-.089-.116-.17-.177-.254-.093.1-.278.231-.262.293.166.598-.181 1.134-.166 1.762zm3.755 2.707c-.023.012-.116.104-.22.116-.096.012-.231-.023-.289-.1a16.027 16.027 0 0 1-.837-1.176c-.069-.108-.096-.393-.058-.42.127-.077.378-.166.436-.096.332.424.617.883.918 1.334.031.046.019.123.05.339zM15.63 23.557c.154.019.451.027.744.085.077.015.174.181.174.278 0 .1-.085.27-.158.289-.571.166-1.141.204-1.646-.231a.3.3 0 0 1-.065-.114l-.001-.002a.343.343 0 0 1-.017-.104l.001-.028v.001c.012-.066.1-.154.162-.162.216-.019.436-.008.806-.008zM33.531 9.716l.216.135c-.062.127-.1.332-.189.366a7.504 7.504 0 0 1-1.206.405l-.055.011c-.123.027-.305-.112-.42-.227-.131-.135-.05-.424.116-.451.486-.089.975-.154 1.538-.239zM18.988 26.379c.231.123.42.154.513.289.258.366.49.748.702 1.153.1.193.008.397-.166.451-.093.031-.266-.058-.335-.154a11.71 11.71 0 0 1-.74-1.158l-.031-.061c-.058-.1.027-.301.058-.52zm8.964-15.237c.015-.108 0-.239.046-.285.062-.066.193-.12.258-.085.085.046.143.177.2.281.166.285.332.574.49.867.069.131.166.27.17.413a.59.59 0 0 1-.146.386c-.046.054-.243.019-.293-.05-.316-.463-.694-.894-.721-1.523zm.987-4.912c-.069.47-.096.821-.177 1.153a.957.957 0 0 1-.27.455c-.093.085-.251.073-.378.104-.012-.139-.05-.281-.027-.413.066-.401.154-.798.235-1.195.008-.035.004-.066.012-.096.066-.243.2-.424.416-.324.112.05.162.27.189.316zM23.04 9.303c.193.027.44.039.679.108.077.023.2.193.185.262-.023.131-.116.301-.216.339a.69.69 0 0 1-.482 0c-.274-.096-.528-.131-.802 0-.177.089-.347-.004-.393-.208-.066-.278.116-.409.316-.451.216-.039.44-.035.713-.05zm4.268 13.571c-.077.389-.139.733-.224 1.068-.015.066-.135.154-.185.139-.093-.023-.22-.108-.239-.193a1.481 1.481 0 0 1-.012-.567c.062-.343.127-.667.004-1.018-.058-.17-.039-.44.181-.436.12 0 .293.17.347.308.085.227.093.49.127.698zm-3.366-.1c-.046.093-.069.2-.127.247-.359.285-.721.571-1.099.821-.096.066-.27.027-.389-.015-.181-.062-.22-.335-.069-.447.413-.308.833-.609 1.257-.891.069-.046.208 0 .297.054.058.035.085.146.131.231zM19.354 4.411c.054.039.166.073.181.135.1.365.237.982.357 1.606l.036.226c.031.17-.166.262-.297.162-.413-.32-.671-1.507-.428-2.005.023-.05.085-.073.146-.123zm5.109 1.719c-.127-.093-.258-.143-.278-.224-.019-.093.042-.243.116-.316.301-.308.617-.605.948-.879.116-.093.343-.154.428-.085.2.162.096.393-.042.563-.193.227-.378.463-.598.648-.166.139-.378.2-.578.297zm-7.865 3.208-.301.328c-.089-.104-.216-.193-.251-.324a19.164 19.164 0 0 1-.354-1.358l-.032-.169c-.012-.069.039-.212.089-.239.081-.039.22-.054.285 0 .123.108.27.251.308.413.108.416.166.848.254 1.349zm-3.312 8.42c-.278.586-.486 1.184-1.002 1.504-.089.054-.281-.015-.374-.1-.154-.143 0-.262.077-.386.243-.386.466-.787.725-1.157.066-.096.231-.143.347-.127.077.008.143.158.231.266zm3.138.05c.143.096.247.123.266.189.031.104.05.27 0 .339-.077.116-.216.181-.332.258-.305.2-.605.413-.918.578a.372.372 0 0 1-.359-.031c-.174-.143-.116-.374.027-.478.436-.308.887-.586 1.311-.856zm15.68-2.652c-.112.289-.27.729-.455 1.145-.027.066-.208.1-.285.062-.069-.039-.146-.2-.131-.289.077-.463.154-.933.281-1.384.039-.139.212-.262.347-.308.046-.015.177.197.235.328.039.077.008.189.008.447zm-18.903-3.474c.49.501.432 1.195.486 1.827.012.116-.116.289-.22.374-.054.042-.27-.027-.274-.069a40.445 40.445 0 0 1-.185-1.935c-.004-.054.112-.12.193-.2zm11.47 15.695.243.093c.293.158.59.308.879.486.135.077.27.181.37.312.116.154-.015.443-.174.405-.536-.135-1.056-.32-1.457-.779-.058-.069-.058-.239-.039-.355.012-.062.116-.108.177-.162zm-6.512-15.514c.031.104.127.262.093.359a25.734 25.734 0 0 1-.598 1.55c-.027.062-.139.116-.204.108-.058-.008-.135-.1-.154-.17-.108-.571.243-1.588.64-1.843.039-.027.104 0 .224 0zm15.298 8.625c-.062-.042-.189-.1-.254-.204-.027-.042.058-.231.131-.297.3-.255.632-.508.976-.744l.041-.027c.093-.066.289-.069.359 0 .066.066.077.316.015.409-.293.47-.663.829-1.268.864zm-2.031 4.056c-.254-.031-.362-.035-.47-.062-.046-.012-.112-.073-.112-.112a.476.476 0 0 1 .058-.254.422.422 0 0 1 .204-.146c.393-.135.783-.27 1.18-.382.089-.023.27.039.281.1a.995.995 0 0 1-.05.432c-.027.069-.123.131-.197.154-.339.112-.682.204-.894.27zM19.643 21.29c-.031.135-.077.44-.162.729-.023.069-.193.139-.27.116-.081-.027-.174-.177-.17-.27.008-.532.031-1.064.077-1.592.008-.116.135-.216.208-.324.089.104.231.2.254.324.046.27.039.559.062 1.018zM37.98 4.673c0-1.126.239-1.978.709-2.56a2.264 2.264 0 0 1 1.794-.883h.048-.002a2.229 2.229 0 0 1 1.775.761l.002.003c.447.505.671 1.315.671 2.429 0 1.11-.235 1.951-.709 2.521a2.335 2.335 0 0 1-1.806.854l-.092-.002h.004l-.08.001a2.22 2.22 0 0 1-1.597-.676l-.001-.001a2.418 2.418 0 0 1-.524-.958l-.004-.017a5.13 5.13 0 0 1-.186-1.385l.001-.093v.005zm2.521-3.347c-.54 0-.987.278-1.338.833-.343.555-.513 1.373-.513 2.448s.162 1.858.49 2.352c.266.448.747.744 1.298.744h.01-.001c.547 0 .995-.278 1.338-.833.347-.563.524-1.376.524-2.44 0-1.068-.17-1.851-.501-2.352a1.499 1.499 0 0 0-1.298-.752h-.01.001zm3.867 6.435h-.667V1.268h.667v2.988h2.622V1.268h.667v6.493h-.667V4.349h-2.622v3.412zm6.728 0h-.108l.702-6.493h.27l1.689 5.999 1.685-5.999h.266l.702 6.493h-.671l-.555-5.193-1.457 5.193h-.509l-1.473-5.128-.54 5.128zm9.665-6.489a.648.648 0 0 1 .154.451c0 .154-.031.308-.089.474l-1.442 3.366v2.198h-.671V5.768l-1.608-4.499h.682l1.542 4.183 1.4-3.254c.058-.154.089-.316.089-.482 0-.17-.039-.297-.12-.389l.062-.058zM1.137 9.465c.363-.022.789-.034 1.218-.035h.001c.409 0 .833.05 1.28.15.455.096.898.281 1.334.555.447.266.82.611 1.111 1.018l.007.011c.316.413.567.964.756 1.65.193.686.285 1.519.285 2.498s-.143 1.862-.424 2.649c-.278.771-.655 1.365-1.137 1.781a5 5 0 0 1-3.399 1.206h.006c-.463 0-.952-.019-1.465-.066H.001V9.462h1.137zm.039 11.289a10.075 10.075 0 0 0 1.463.014l-.029.001a3.264 3.264 0 0 0 1.378-.478l-.014.008a4.091 4.091 0 0 0 1.354-1.595l.011-.025c.405-.894.609-2.059.609-3.497 0-1.022-.108-1.905-.328-2.645a4.973 4.973 0 0 0-.762-1.685l.011.016a3.005 3.005 0 0 0-.99-.84l-.016-.008a2.98 2.98 0 0 0-.932-.37l-.02-.004a8.442 8.442 0 0 0-1.771.003l.037-.003v11.107zm37.035.131h-.185V9.45h.482l5.907 10.572V9.447h.185v11.435h-1.033l-5.351-9.469v9.477zM53.344 9.446h.185v6.539c0 1.708-.293 2.969-.879 3.774a2.73 2.73 0 0 1-2.258 1.196h-.046.002l-.108.001c-.502 0-.988-.067-1.45-.191l.039.009a3.135 3.135 0 0 1-1.181-.707l.001.001c-.756-.675-1.133-2.036-1.133-4.087V9.454h1.176v6.516c0 1.986.262 3.308.783 3.971.266.328.54.551.821.671.293.115.633.182.988.182l.067-.001h-.003c.91 0 1.631-.382 2.171-1.145.551-.771.825-1.997.825-3.674V9.447zm5.027 11.439h-1.18V9.612h-2.456V9.45h6.107v.162h-2.467v11.273z"/></symbol><symbol id="twitter" viewBox="0 0 32 32"><path d="M32 5.44a11.743 11.743 0 0 1-3.718 1.153l-.062.007a7.224 7.224 0 0 0 2.868-4.009l.012-.051c-1.26.86-2.66 1.44-4.16 1.78A6.275 6.275 0 0 0 22.144 2h-.004c-3.58 0-6.54 3.3-6.54 7.34 0 .58.04 1.14.16 1.66A18.009 18.009 0 0 1 2.238 3.397L2.2 3.34a7.951 7.951 0 0 0-.9 3.7c0 2.54 1.18 4.8 2.92 6.1a5.943 5.943 0 0 1-2.985-.914l.025.014v.08c0 3.56 2.28 6.52 5.26 7.2a5.946 5.946 0 0 1-2.999.113l.039.007c.84 2.9 3.26 5.04 6.12 5.1a12.266 12.266 0 0 1-8.224 3.146c-.513 0-1.019-.031-1.516-.092L0 27.8a16.95 16.95 0 0 0 10.06 3.28c12.08 0 18.68-11.18 18.68-20.86l-.02-.96a14.133 14.133 0 0 0 3.244-3.755L32 5.44z"/></symbol><symbol id="instagramm" viewBox="0 0 32 32"><path d="M16.32 32H16c-2.52 0-4.82-.06-7.08-.2a9.427 9.427 0 0 1-5.478-2.074l.018.014a8.773 8.773 0 0 1-2.928-4.7l-.012-.06C.08 23.28.06 21.6.04 20a345.146 345.146 0 0 1 .002-8.151l-.002.211c0-1.64.04-3.32.48-5.02.5-1.98 1.5-3.58 2.94-4.76C4.96 1.04 6.86.32 8.92.2 11.037.059 13.509-.021 16-.021s4.963.08 7.414.238L23.08.2a8.848 8.848 0 0 1 8.388 6.76l.012.06c.44 1.7.46 3.4.48 5L32 16l-.04 3.96c0 1.64-.04 3.32-.48 5.02a8.793 8.793 0 0 1-2.926 4.749l-.014.011c-1.5 1.22-3.4 1.94-5.46 2.06-2.16.14-4.38.2-6.76.2zM16 29.5c2.46 0 4.74-.06 6.94-.2a6.324 6.324 0 0 0 6.112-4.897l.008-.043c.36-1.4.4-2.94.4-4.44a378.64 378.64 0 0 0-.002-8.05l.002.21a19.203 19.203 0 0 0-.423-4.586l.023.126a6.339 6.339 0 0 0-2.09-3.412l-.01-.008a6.835 6.835 0 0 0-4.006-1.5h-.014c-2.075-.141-4.498-.221-6.94-.221s-4.865.08-7.266.239l.326-.017a6.324 6.324 0 0 0-6.112 4.897l-.008.043c-.36 1.4-.4 2.94-.4 4.44a336.544 336.544 0 0 0 .002 8.049l-.002-.209c0 1.5.04 3.02.4 4.46s1.08 2.6 2.1 3.42c1.12.9 2.46 1.4 4.02 1.5 2.2.14 4.48.2 6.94.2zm-.06-5.68a7.83 7.83 0 0 1 0-15.66 7.83 7.83 0 0 1 0 15.66zm0-13.14a5.32 5.32 0 0 0 0 10.64 5.32 5.32 0 0 0 0-10.64zm8.68-5a1.88 1.88 0 0 0 0 3.76 1.88 1.88 0 0 0 0-3.76z"/></symbol><symbol id="facebook" viewBox="0 0 32 32"><path d="M22.52 0H18.9c-4.06 0-6.7 3.1-6.7 7.88v3.62H8.56c-.3 0-.56.3-.56.66v5.26c0 .36.26.66.56.66h3.64v13.26c0 .36.26.66.58.66h4.74c.32 0 .56-.3.56-.66V18.08h4.26c.32 0 .56-.3.56-.66v-5.274c0-.17-.06-.326-.161-.447l.001.001a.538.538 0 0 0-.399-.2H18.08V8.42c0-1.48.32-2.22 2-2.22h2.44c.3 0 .56-.3.56-.66V.66c0-.36-.26-.66-.56-.66z"/></symbol><symbol id="icon-toque" viewBox="0 0 32 32"><path d="M23.04 8.576a.412.412 0 0 1-.294-.153l-.001-.001a.537.537 0 0 1-.128-.345 7.744 7.744 0 0 0-1.89-5.015l.008.01A5.894 5.894 0 0 0 16.323.998h-.004a5.88 5.88 0 0 0-4.396 2.065l-.007.008a7.731 7.731 0 0 0-1.882 4.988v.004a.547.547 0 0 1-.128.346.41.41 0 0 1-.307.154h-.001a.412.412 0 0 1-.307-.153l-.001-.001a.537.537 0 0 1-.128-.345 8.8 8.8 0 0 1 2.147-5.733l-.009.011A6.697 6.697 0 0 1 16.314 0h.004c1.882 0 3.686.845 5.018 2.355a8.791 8.791 0 0 1 2.138 5.719v.002a.483.483 0 0 1-.128.346.41.41 0 0 1-.293.154h-.001z"/><path d="M24.307 19.738a.396.396 0 0 1-.307-.153l-.001-.001a.519.519 0 0 1-.128-.343v-.002c0-.128.038-.256.128-.346a.41.41 0 0 1 .293-.154h.001c1.638 0 3.2-.755 4.365-2.074a7.678 7.678 0 0 0 1.847-5.01 7.688 7.688 0 0 0-1.868-5.035l.008.01a5.84 5.84 0 0 0-4.433-2.033c-.667 0-1.308.112-1.906.317l.041-.012a.386.386 0 0 1-.321-.052l.001.001a.49.49 0 0 1-.217-.278l-.001-.003a.557.557 0 0 1 .04-.387l-.001.003a.445.445 0 0 1 .253-.229l.003-.001a6.517 6.517 0 0 1 2.101-.34c2.018 0 3.826.898 5.046 2.316l.007.009a8.734 8.734 0 0 1 2.115 5.716 8.746 8.746 0 0 1-2.113 5.713l.01-.012a6.676 6.676 0 0 1-4.959 2.381h-.008zm-15.961 0a6.67 6.67 0 0 1-4.958-2.371l-.008-.01a8.746 8.746 0 0 1-2.099-5.701 8.76 8.76 0 0 1 2.121-5.728l-.01.012a6.645 6.645 0 0 1 5.057-2.328c.755 0 1.481.126 2.158.358l-.047-.014a.49.49 0 0 1 .255.24l.001.003a.545.545 0 0 1-.053.539l.001-.002a.462.462 0 0 1-.126.127l-.002.001a.377.377 0 0 1-.335.038l.003.001a5.723 5.723 0 0 0-1.856-.302 5.837 5.837 0 0 0-4.435 2.035l-.006.008a7.677 7.677 0 0 0-1.861 5.026c0 1.911.694 3.659 1.844 5.007l-.009-.011a5.867 5.867 0 0 0 4.358 2.086h.007c.061 0 .118.014.169.039l-.002-.001a.273.273 0 0 1 .141.102.548.548 0 0 1-.001.693l.001-.001a.446.446 0 0 1-.138.114l-.002.001a.379.379 0 0 1-.166.038z"/><path d="M24.307 32H8.345a.413.413 0 0 1-.307-.14.532.532 0 0 1-.128-.348v-.011.001V19.24c0-.128.051-.256.128-.346a.41.41 0 0 1 .307-.141c.115 0 .23.051.307.128.077.102.128.23.128.358v11.776h15.091V19.239c0-.128.051-.256.128-.346a.41.41 0 0 1 .307-.141c.102 0 .218.051.294.128.09.102.128.23.128.358V31.5a.533.533 0 0 1-.128.358.41.41 0 0 1-.28.141h-.001z"/><path d="M27.29 27.226H11.341a.412.412 0 0 1-.307-.153l-.001-.001a.537.537 0 0 1-.128-.345c0-.128.051-.256.128-.346a.41.41 0 0 1 .307-.141h15.949c.128 0 .23.051.307.128.077.102.128.23.128.358s-.051.256-.128.346a.41.41 0 0 1-.307.154h-.001z"/></symbol><symbol id="icon-people" viewBox="0 0 32 32"><path d="M11.904 0C8.576 0 5.888 3.072 5.888 6.912s2.688 6.784 6.016 6.784 6.016-3.072 6.016-6.784C17.92 3.072 15.232 0 11.904 0zm0 12.544c-2.816 0-4.992-2.56-4.992-5.632 0-3.2 2.176-5.76 4.992-5.76 2.688 0 4.992 2.56 4.992 5.76 0 3.072-2.304 5.632-5.12 5.632zm12.16-9.728c-2.432 0-4.48 2.304-4.48 5.12 0 2.944 2.048 5.12 4.48 5.12 2.56 0 4.608-2.176 4.608-5.12 0-2.816-2.048-5.12-4.608-5.12zm0 9.216c-1.92 0-3.456-1.792-3.456-4.096 0-2.176 1.536-3.84 3.456-3.84 2.048 0 3.584 1.664 3.584 3.84 0 2.304-1.536 4.096-3.584 4.096z"/><path d="M32.128 20.736a8.981 8.981 0 0 0-5.066-7.145l-.054-.023s-1.28 1.024-2.944 1.024c-1.792 0-2.944-1.024-2.944-1.024s-1.28.512-2.56 1.792a12.171 12.171 0 0 0-2.623-1.888l-.065-.032s-1.664 1.408-3.968 1.28c-2.56 0-3.84-1.28-3.84-1.28s-5.504 2.048-6.656 9.216c0 0-1.28 3.84 1.536 9.344H20.48s1.28-2.56 1.536-3.968h8.704c2.176-3.84 1.28-7.296 1.28-7.296zm-12.032 10.24H3.712c-2.176-4.736-1.28-8.192-1.28-8.192.64-3.584 2.56-6.4 5.504-8.064 1.106.784 2.482 1.252 3.968 1.252s2.863-.469 3.99-1.267l-.022.014c2.912 1.671 4.944 4.592 5.371 8.011l.005.053s.896 4.224-1.28 8.064zm10.24-4.096h-8.064c.384-2.048 0-4.224 0-4.224-.384-2.56-1.408-4.736-2.944-6.4.512-.64 1.152-1.024 1.664-1.408 1.92 1.28 4.352 1.28 6.144 0 2.176 1.152 3.584 3.328 3.968 6.016 0 0 .768 2.816-.768 6.016z"/></symbol><symbol id="icon-clock" viewBox="0 0 32 32"><path d="M16 0C7.177 0 0 7.177 0 16c0 8.822 7.177 16 16 16 8.822 0 16-7.178 16-16 0-8.823-7.178-16-16-16zm0 30.934c-8.234 0-14.934-6.7-14.934-14.934S7.766 1.066 16 1.066 30.934 7.766 30.934 16 24.234 30.934 16 30.934z"/><path d="M16.534 13.878V8.469a.534.534 0 1 0-1.068 0v5.409a2.14 2.14 0 0 0-1.52 1.51l-.003.015h-3.809l-.026-.001a.534.534 0 1 0 0 1.068l.027-.001h-.001 3.809a2.13 2.13 0 0 0 2.057 1.6 2.134 2.134 0 0 0 2.134-2.132c0-.992-.684-1.819-1.6-2.058zM16 17.002a1.067 1.067 0 0 1 .002-2.136h.001a1.067 1.067 0 0 1-.002 2.136H16zm0-11.734a.533.533 0 0 0 .534-.532v-.534a.534.534 0 1 0-1.068 0v.534c0 .294.239.532.534.532zm0 21.334a.534.534 0 0 0-.534.534v.532a.534.534 0 1 0 1.068 0v-.533a.532.532 0 0 0-.532-.532h-.001zm11.734-11.2H27.2l-.026-.001a.534.534 0 1 0 0 1.068l.027-.001H27.2h.534l.026.001a.534.534 0 1 0 0-1.068l-.027.001h.001zm-22.934 0h-.534a.533.533 0 0 0 0 1.066H4.8l.026.001a.534.534 0 1 0 0-1.068l-.027.001H4.8zm19.119-8.141-.378.378a.535.535 0 0 0 .756.754l.376-.378a.533.533 0 0 0-.754-.754zM7.703 23.478l-.376.378a.533.533 0 0 0 .754.754l.378-.378a.535.535 0 0 0-.756-.754zm16.594 0a.534.534 0 1 0-.756.756l.378.376a.531.531 0 0 0 .756 0 .53.53 0 0 0 0-.756l-.378-.376zM8.081 7.261a.534.534 0 1 0-.756.756l.378.376a.53.53 0 0 0 .756 0 .53.53 0 0 0 0-.756l-.378-.376z"/></symbol><symbol id="icon-messeg" viewBox="0 0 32 32"><path d="M24.614 14.938c0-6.707-6.144-11.098-12.301-11.098C6.131 3.84-.001 8.256-.001 14.938c0 2.534.96 4.992 2.714 6.963.077.077.102.192.077.294a17.055 17.055 0 0 1-2.443 5.253l.037-.056a.889.889 0 0 0-.075.863l-.002-.006c.128.256.358.435.627.435h.013c2.624-.077 5.658-.922 7.526-3.046a.257.257 0 0 1 .258-.076h-.002c1.152.32 2.355.474 3.571.474 6.17 0 12.301-4.416 12.301-11.098zM8.96 24.525a1.1 1.1 0 0 0-1.125.344l-.001.001c-1.869 2.125-4.941 2.598-6.4 2.714.678-1.05 1.754-2.982 2.253-5.107.128-.474 0-.998-.32-1.344A9.165 9.165 0 0 1 .935 14.94v-.002c0-5.53 5.107-10.022 11.379-10.022S23.68 9.409 23.68 14.938 18.586 24.96 12.314 24.96c-1.152 0-2.266-.141-3.354-.435z"/><path d="M27.635 23.872c2.581-1.43 4.312-4.116 4.365-7.212v-.007c0-4.16-3.277-7.706-7.782-8.448-.256-.038-.499.166-.525.461-.038.294.128.563.384.614 4.058.653 6.989 3.763 6.989 7.373a7.3 7.3 0 0 1-3.814 6.253l-.038.019a1.408 1.408 0 0 0-.613 1.455l-.001-.009c.23 1.242.717 2.381 1.114 3.149-2.778-.525-3.827-2.048-4.16-2.714a1.141 1.141 0 0 0-.997-.653h-.04a8.741 8.741 0 0 1-1.536-.128c-.256-.038-.512.166-.538.461-.038.294.141.563.397.602.55.09 1.114.128 1.677.128h.038c.077 0 .154.051.192.128 1.28 2.534 4.186 3.174 5.376 3.328.269.038.512-.102.666-.358a.95.95 0 0 0 0-.832 11.278 11.278 0 0 1-1.266-3.252l-.014-.076a.258.258 0 0 1 .127-.281l.001-.001zM5.018 13.018c-.896 0-1.626.832-1.626 1.856s.73 1.869 1.626 1.869c.896 0 1.626-.832 1.626-1.869 0-1.024-.73-1.856-1.626-1.856zm0 2.649c-.384 0-.691-.358-.691-.794 0-.422.307-.781.691-.781s.691.358.691.781c0 .435-.32.794-.691.794zm4.633-2.649c-.896 0-1.626.832-1.626 1.856s.73 1.869 1.626 1.869c.896 0 1.626-.832 1.626-1.869 0-1.024-.73-1.856-1.626-1.856zm0 2.649c-.384 0-.691-.358-.691-.794 0-.422.307-.781.691-.781s.691.358.691.781c0 .435-.307.794-.691.794zm4.634-2.649c-.896 0-1.626.832-1.626 1.856s.73 1.869 1.626 1.869c.896 0 1.626-.832 1.626-1.869 0-1.024-.73-1.856-1.626-1.856zm0 2.649c-.384 0-.691-.358-.691-.794 0-.422.307-.781.691-.781s.691.358.691.781c0 .435-.307.794-.691.794zm4.633-2.649c-.896 0-1.626.832-1.626 1.856s.73 1.869 1.626 1.869c.896 0 1.626-.832 1.626-1.869 0-1.024-.73-1.856-1.626-1.856zm0 2.649c-.384 0-.691-.358-.691-.794 0-.422.32-.781.691-.781.384 0 .691.358.691.781 0 .435-.307.794-.691.794z"/></symbol><symbol id="empty-star" viewBox="0 0 34 32"><path stroke-width="1.684" d="M15.899 3.048a.842.842 0 0 1 1.598-.006l.002.006 2.526 7.731a2.498 2.498 0 0 0 2.392 1.735h8.118a.842.842 0 0 1 .507 1.514l-.002.002-6.568 4.783a2.526 2.526 0 0 0-.922 2.847l-.005-.018 2.509 7.731a.842.842 0 0 1-1.299.941l.002.002-6.568-4.783c-.412-.304-.93-.487-1.491-.487s-1.078.183-1.497.491l.007-.005-6.568 4.783a.842.842 0 0 1-1.295-.949l-.002.006 2.526-7.731a2.524 2.524 0 0 0-.919-2.825l-.007-.005-6.585-4.766a.843.843 0 0 1 .505-1.516h8.122a2.527 2.527 0 0 0 2.399-1.734l.005-.018 2.526-7.731z"/></symbol><symbol id="fill-star" viewBox="0 0 34 32"><path d="M15.242 1.566c.228-.678.858-1.158 1.6-1.158s1.372.48 1.597 1.146l.003.012 2.56 7.865a1.688 1.688 0 0 0 1.6 1.179h8.287a1.684 1.684 0 0 1 .981 3.029l-.004.003-6.686 4.884a1.682 1.682 0 0 0-.619 1.898l-.003-.012 2.56 7.865a1.684 1.684 0 0 1-2.599 1.883l.005.003-6.669-4.901c-.275-.203-.62-.324-.994-.324s-.719.122-.998.328l.005-.003-6.703 4.884a1.684 1.684 0 0 1-2.59-1.898l-.003.012 2.56-7.865a1.682 1.682 0 0 0-.618-1.883l-.005-.003-6.686-4.867a1.684 1.684 0 0 1 .993-3.031h8.264c.75 0 1.385-.49 1.603-1.167l.003-.012 2.56-7.865z"/></symbol><symbol id="icon-phone" viewBox="0 0 32 32"><path d="M29.486 21.029h-.005c-2.042 0-4.005-.335-5.839-.952l.129.038c-.914-.229-2.057 0-2.514.457L17.6 23.315c-4.114-2.286-6.857-4.571-9.143-8.914l2.971-3.429c.686-.686.914-1.829.686-2.743-.58-1.705-.914-3.668-.914-5.71v-.005C10.971 1.143 9.829 0 8.457 0H2.286C1.143 0 0 1.143 0 2.514.128 18.747 13.253 31.871 29.474 32h.012A2.537 2.537 0 0 0 32 29.486v-5.943a2.537 2.537 0 0 0-2.514-2.514z"/></symbol><symbol id="icon-geo-mark" viewBox="0 0 25 32"><path d="M12.571 0c6.926 0 12.571 5.486 12.571 12.183 0 2.674-.869 5.189-2.514 7.314l-9.28 12.114-.091.069a.948.948 0 0 1-1.463-.069L2.331 19.268v-.023A11.755 11.755 0 0 1 0 12.19v-.008C.115 5.428 5.617-.002 12.387-.002l.194.002h-.01zm0 18.743.093.001a6.698 6.698 0 0 0 6.696-6.554v-.007a6.699 6.699 0 0 0-6.696-6.561l-.098.001h.005l-.093-.001a6.698 6.698 0 0 0-6.696 6.554v.007a6.697 6.697 0 0 0 6.696 6.583l.097-.001h-.005z"/></symbol><symbol id="menu" viewBox="0 0 32 32"><path d="M1.067 7.467h29.867a1.067 1.067 0 0 1 0 2.134H1.067a1.067 1.067 0 0 1 0-2.134zm0 7.466h29.867a1.067 1.067 0 0 1 0 2.134H1.067a1.067 1.067 0 0 1 0-2.134zm0 7.467h29.867a1.067 1.067 0 0 1 0 2.134H1.067a1.067 1.067 0 0 1 0-2.134z"/></symbol><symbol id="icon-close" viewBox="0 0 32 32"><path d="M30.354 32a1.646 1.646 0 0 0 1.162-2.81L2.812.481A1.647 1.647 0 0 0 .483 2.81l28.708 28.708c.322.32.743.484 1.164.484z"/><path d="M1.644 32h.003c.454 0 .865-.185 1.161-.483L31.517 2.811A1.647 1.647 0 0 0 29.188.482L.479 29.191A1.645 1.645 0 0 0 1.643 32z"/></symbol></defs></svg>