<svg aria-hidden="true" style="position:absolute;width:0;height:0;overflow:hidden" xmlns="http://www.w3.org/2000/svg"><defs><symbol id="logo" viewBox="0 0 190 85"><path d="M112.76 42.5c0 .69-.02 1.38 0 2.07.23 7.05-1.97 13.4-5.5 19.38-1.18 2-2.31 4.05-3.33 6.15a6.86 6.86 0 0 1-3.83 3.64 10.48 10.48 0 0 0-2.81 1.77 41.6 41.6 0 0 1-13.13 7.19c-3.16 1.08-6.41 2.04-9.84 2-1.03-.02-2.05.3-3.08.3-1.02 0-2.05-.33-3.06-.29-4.43.2-8.53-1.17-12.6-2.6-4.44-1.55-8.36-4.02-12.05-6.95-5.21-4.14-8.92-9.35-11.65-15.31-1.47-3.22-2.67-6.54-3-10.1-.06-.6-.26-1.19-.43-1.76-1.24-4-.53-7.93.24-11.92a49.72 49.72 0 0 1 2.33-8.96A42.33 42.33 0 0 1 45.45 8.25 41.62 41.62 0 0 1 63.9.55 42.04 42.04 0 0 1 86.47 3.1a38.73 38.73 0 0 1 10.1 5.74 64.92 64.92 0 0 1 7.72 7.66c2.17 2.46 3.7 5.4 5.08 8.4 2.14 4.67 3.54 9.52 3.4 14.72-.03.97-.01 1.92-.01 2.87Zm-2.97-9.5c-.2-1.63-.34-3.52-.74-5.36-1.14-5.3-4.2-9.42-8.3-12.8-2.31-1.92-4.84-3.58-7.33-5.28a7.63 7.63 0 0 0-2.81-1.28 59.2 59.2 0 0 0-7.67-1.03c-4.46-.23-8.46-1.38-11.83-4.47-2.47-2.28-5.17-2.5-7.75-.5-2.91 2.27-6.24 3.6-9.62 4.93-2.48.97-4.87 2.18-7.26 3.39-1.99 1-3.15 2.58-3.12 4.96a3.52 3.52 0 0 1-1.84 3.19c-1.03.62-2.02 1.3-2.96 2.05-2.64 2.08-4.7 4.42-5.14 8.04-.35 2.87-1.22 5.7-3.19 8.07a5.41 5.41 0 0 0-1.17 2.84c-.18 2.15-.1 4.32-.05 6.47.01.58.26 1.2.56 1.7a40.9 40.9 0 0 0 2.21 3.5c1.93 2.69 3.61 5.44 4 8.85.38 3.3 1.97 5.99 4.67 8.04 3.92 2.98 7.69 6.14 11.66 9.04 2.13 1.56 4.42 2.93 7.23 3.25 2.81.31 5.57 1.08 8.1 2.5.53.28 1.1.46 1.7.52 3.56.38 6.86-.5 9.99-2.17.98-.52 1.99-1 3-1.45 2.44-1.09 5.15-1.8 7.28-3.33 2.37-1.7 4.9-2.45 7.62-2.92a4.77 4.77 0 0 0 2.9-1.57c.91-1.03 1.75-2.13 2.7-3.13a6.12 6.12 0 0 0 1.87-3.6 14.57 14.57 0 0 1 2.45-6.16 27.42 27.42 0 0 0 3.87-10.6c.16-1 .25-1.84-.24-2.72-1.43-2.53-.85-5.4-1.3-8.1-.23-1.46.3-3.05.52-4.86ZM92.62 7.74c-.6-.67-.8-.97-1.07-1.16-.49-.34-1.03-.61-1.55-.91-4.48-2.52-9.39-3.75-14.4-4.63-1.01-.18-2.07-.1-3.1-.06-.27.01-.59.27-.76.5-.07.11.1.48.25.66a9.61 9.61 0 0 0 4.21 2.9 28.19 28.19 0 0 0 8.82 1.66c1.27.03 2.54.27 3.8.45 1.1.15 2.17.33 3.8.59Zm-38.08 72.7c-3-2.45-5.65-4.65-8.33-6.79a281.22 281.22 0 0 0-6.76-5.18c-.26-.2-.66-.19-1.22-.33 2.74 4.59 11.88 11.56 16.3 12.3ZM34.27 23.11c1.82-1.39 3.5-2.85 5.34-4.05 2.58-1.68 3.57-3.78 2.96-7.37-1.83 1.5-3.14 3.3-4.55 4.95-1.5 1.73-2.6 3.78-3.85 5.72-.1.16.06.47.1.75Zm61.18 52.38c-1.7-.11-3.4.18-4.46 1.1-2.01 1.73-4.41 2.6-6.85 3.47-1.28.45-2.49 1.12-3.7 1.75-.16.09-.19.56-.15.83 0 .1.46.25.64.19 2.2-.75 4.46-1.35 6.53-2.35 2.54-1.22 4.93-2.76 7.36-4.2.26-.14.39-.47.63-.79Zm-64.65-24c-.48 1.43-.39 2.22-.08 3.06.85 2.35 1.36 4.82 2.89 6.87.57.76.68 2.46 1.73 2.1.92-.33-.16-1.67-.22-2.58-.24-3.46-2.06-6.25-4.32-9.46ZM47.22 8.33l.22.35c1.27-.47 2.54-.92 3.8-1.42 2.71-1.09 5.43-2.2 8.13-3.33a6.6 6.6 0 0 0 1.5-.97c.14-.1.12-.47.07-.69-.02-.1-.27-.2-.42-.21-.26 0-.5.05-.75.12a47.76 47.76 0 0 0-10.46 4.47c-.77.43-1.4 1.12-2.1 1.68Zm64.53 37.2c.22-.25.4-.36.4-.48.37-3.77-.03-7.51-.55-11.24-.03-.2-.29-.46-.46-.48-.2-.03-.5.13-.62.3-.2.29-.32.6-.35.94-.2 3.08 0 6.17.6 9.2.12.6.62 1.14.98 1.77Zm-81.84-10.4c1.44-.55 1.65-1.54 1.8-2.44.38-2.18 1.32-4.27 1-6.58-1.5 2.75-2.82 5.54-2.8 9.01Zm34.71 47.83c-3.21-1.43-4.09-1.57-6.95-1.18 1.22.46 2.3 1.2 3.4 1.2 1.15.02 2.39 1.42 3.55-.02Z"/><path d="M71.25 54.7a5.4 5.4 0 0 1-4.83-2.73c-1.04-1.66-2.77-2.52-4.36-3.54-2-1.29-3.62-2.74-4.09-5.35-.32-1.76.06-3.3.77-4.7a7.93 7.93 0 0 1 2.81-2.94c1.23-.75 2.24-1.46 2.8-2.85.65-1.6 2.26-1.7 3.69-1.98 1.35-.27 2.71-.45 4.04-.79 1.81-.46 3.46-.32 4.78 1.1a12.12 12.12 0 0 0 3.56 2.54c1.39.7 1.84 1.5 1.4 2.94-.29.98 0 1.65.36 2.43.4.85.81 1.72 1.09 2.62.91 3-.14 5.52-2.95 6.85-1.74.83-3.08 1.93-3.51 3.87a1.81 1.81 0 0 1-1.35 1.42c-1.4.41-2.8.75-4.21 1.11Zm9.23-12.56c.04-5.28-3.96-9.5-9.17-9.5-4.67 0-9.37 3.15-9.55 9.2a9.26 9.26 0 0 0 9.16 9.38c6.4.04 9.43-4.41 9.56-9.08ZM61.7 47.19c0-.68.06-1.03-.01-1.34-.7-2.87-1.14-5.7.43-8.47.1-.2-.15-.6-.24-.92-.3.1-.68.12-.91.31a6.48 6.48 0 0 0 .73 10.42Zm9.6-15.88c1.1.4 1.7.68 2.36.85 2.38.63 4.41 1.77 5.83 3.86.28.4.64 1.02 1.17.55.29-.25.38-1.01.22-1.4-.22-.5-.72-1.14-1.2-1.24-1.32-.27-2.03-1.22-2.89-2.05-1.43-1.38-3.04-1.8-5.48-.57Zm-.14 20.78-.03-.2c-.69 0-1.38-.06-2.06.02-.35.05-.66.34-1 .52.3.27.57.68.91.77 1.85.47 3.72.57 5.54-.15.31-.12.66-.28.85-.53.17-.21.23-.59.2-.88-.02-.1-.45-.26-.66-.23-1.25.2-2.5.44-3.74.67h-.01Zm9.45-5.42c1.28-.23 1.85-.96 1.93-2.06.05-.94.04-1.88-.04-2.81-.02-.25-.37-.47-.56-.7-.29.27-.86.63-.81.8.52 1.61-.57 3.06-.52 4.77Zm11.72 7.31c-.07.04-.37.29-.69.32-.29.04-.72-.06-.9-.27a45.97 45.97 0 0 1-2.6-3.18c-.22-.29-.3-1.07-.19-1.13.4-.22 1.19-.45 1.36-.26 1.03 1.13 1.94 2.38 2.87 3.6.09.12.06.33.15.92Zm-43.59 8.89c.48.04 1.42.07 2.34.22.23.04.53.49.53.76 0 .26-.26.72-.5.78-1.77.44-3.55.55-5.12-.64a.8.8 0 0 1-.25-.66c.03-.17.3-.42.5-.44.68-.05 1.36-.02 2.5-.02Zm55.84-37.47.68.37c-.2.34-.31.89-.6.99-1.27.47-2.6.85-3.93 1.12-.38.08-.94-.3-1.3-.61-.4-.36-.16-1.15.35-1.23 1.52-.23 3.05-.4 4.8-.64ZM59.23 70.5c.7.33 1.3.42 1.6.78.8.99 1.52 2.03 2.18 3.12.32.51.03 1.08-.51 1.22-.3.09-.83-.15-1.05-.42a33.9 33.9 0 0 1-2.41-3.29c-.17-.27.1-.82.19-1.41ZM87.2 29.27c.04-.3 0-.65.13-.79.2-.17.6-.32.8-.22.27.13.45.48.63.76a72 72 0 0 1 1.52 2.34c.22.36.52.74.54 1.12.02.35-.2.81-.46 1.06-.15.13-.76.04-.91-.14-.99-1.26-2.17-2.43-2.26-4.13Zm3.06-13.31c-.21 1.28-.3 2.22-.55 3.13-.15.48-.45.91-.85 1.23-.29.23-.78.2-1.18.28-.03-.37-.14-.76-.08-1.11.21-1.1.49-2.17.74-3.25.02-.08.01-.17.04-.26.2-.65.62-1.14 1.3-.87.34.13.5.73.58.85Zm-18.4 8.32c.6.07 1.38.11 2.12.3.25.05.62.51.58.7-.08.36-.37.82-.68.92-.49.15-1 .16-1.5 0a3.44 3.44 0 0 0-2.5 0c-.56.24-1.08 0-1.23-.56-.2-.75.36-1.11.99-1.22.67-.1 1.37-.1 2.22-.14Zm13.31 36.73c-.24 1.06-.43 1.99-.69 2.9-.05.18-.42.41-.58.37-.29-.06-.69-.29-.74-.52a3.5 3.5 0 0 1-.05-1.53c.2-.93.4-1.82.03-2.76-.18-.46-.13-1.19.56-1.18.37 0 .9.46 1.07.84.28.6.3 1.32.4 1.88Zm-10.5-.27c-.14.25-.2.54-.39.67-1.12.77-2.25 1.55-3.43 2.23-.3.17-.83.06-1.22-.05-.56-.17-.68-.91-.2-1.21a77.53 77.53 0 0 1 3.92-2.41c.21-.13.64 0 .91.14.19.1.27.4.41.63Zm-14.31-49.7c.18.1.52.2.57.37.44 1.64.87 3.29 1.23 4.95.1.46-.51.72-.92.44-1.3-.87-2.1-4.08-1.35-5.42.08-.14.27-.2.47-.34ZM76.3 15.7c-.4-.26-.81-.39-.87-.61-.06-.25.14-.66.36-.86.95-.84 1.94-1.64 2.97-2.38.34-.24 1.06-.41 1.33-.22.63.44.3 1.06-.14 1.52-.59.61-1.17 1.26-1.85 1.76-.52.37-1.19.53-1.8.8Zm-24.53 8.68-.94.89c-.27-.3-.67-.54-.79-.88a63.64 63.64 0 0 1-1.19-4.13c-.05-.2.11-.58.27-.65.26-.1.7-.15.89 0 .4.29.84.68.97 1.1.33 1.14.51 2.32.79 3.67ZM41.44 47.17c-.86 1.58-1.52 3.2-3.13 4.07-.27.14-.87-.04-1.16-.27-.5-.4 0-.72.24-1.05.75-1.04 1.45-2.13 2.26-3.13.2-.26.73-.38 1.09-.35.24.03.44.44.7.73Zm9.78.13c.45.26.78.34.84.51.1.28.15.72 0 .92-.25.31-.67.49-1.04.7-.95.54-1.88 1.11-2.86 1.58-.3.14-.85.1-1.11-.1-.55-.39-.36-1.01.08-1.29 1.35-.84 2.77-1.58 4.09-2.32Zm48.92-7.17c-.35.78-.84 1.96-1.42 3.1-.09.17-.65.27-.89.16-.22-.1-.46-.54-.42-.78.24-1.26.5-2.53.88-3.75.12-.37.66-.7 1.08-.83.15-.05.56.53.75.88.1.2.02.5.02 1.22Zm-58.97-9.42c1.53 1.37 1.35 3.24 1.52 4.96.03.32-.37.77-.68 1-.17.13-.85-.07-.86-.18a98.87 98.87 0 0 1-.58-5.23c-.01-.15.35-.34.6-.55ZM76.95 73.2c.26.07.51.16.76.25.92.43 1.84.84 2.74 1.31.43.23.85.5 1.16.86.35.4-.05 1.2-.54 1.09-1.67-.36-3.3-.87-4.55-2.11-.19-.19-.18-.65-.12-.96.03-.17.35-.29.55-.43ZM56.64 31.21c.1.28.4.7.29.98a64.41 64.41 0 0 1-1.87 4.19c-.08.17-.43.32-.63.29-.18-.02-.43-.27-.48-.47-.35-1.53.76-4.28 1.99-4.98.12-.07.33 0 .7 0Zm47.72 23.35c-.2-.12-.6-.27-.8-.56-.09-.11.18-.63.41-.8a38.02 38.02 0 0 1 3.17-2.1c.3-.17.9-.18 1.13.01.2.18.23.86.05 1.1-.92 1.28-2.07 2.25-3.96 2.35Zm-6.34 10.97c-.8-.08-1.14-.1-1.47-.16-.14-.04-.35-.2-.35-.3-.01-.25.05-.5.18-.7.17-.19.4-.33.64-.4 1.22-.36 2.45-.73 3.68-1.03.27-.06.84.12.88.27.08.36-.02.8-.16 1.17-.08.2-.38.36-.61.43-1.06.29-2.13.55-2.8.72Zm-36.76-8.81c-.08.38-.22 1.2-.5 1.98-.07.19-.6.37-.85.3-.24-.07-.53-.47-.52-.72.02-1.44.1-2.88.24-4.31.03-.31.43-.59.66-.88.27.29.71.54.78.87.16.75.12 1.53.2 2.76Zm57.21-44.97c0-3.05.73-5.36 2.2-6.93a7.5 7.5 0 0 1 5.74-2.38c2.33 0 4.18.68 5.55 2.05 1.4 1.38 2.09 3.57 2.09 6.58 0 3.01-.74 5.29-2.22 6.83-1.47 1.53-3.44 2.3-5.9 2.3a7.52 7.52 0 0 1-5.23-1.83 6.37 6.37 0 0 1-1.66-2.63 12.46 12.46 0 0 1-.58-4Zm7.86-9.06c-1.7 0-3.08.75-4.17 2.26-1.07 1.5-1.6 3.71-1.6 6.62s.5 5.04 1.52 6.38a4.87 4.87 0 0 0 4.08 2c1.7 0 3.1-.75 4.17-2.26 1.09-1.52 1.63-3.72 1.63-6.6 0-2.89-.52-5.01-1.56-6.37a4.85 4.85 0 0 0-4.07-2.03ZM138.4 20.1h-2.1V2.54h2.1v8.08h8.16V2.54h2.09V20.1h-2.09v-9.23h-8.17v9.23Zm20.97 0h-.33l2.19-17.56h.83l5.27 16.23 5.26-16.23h.82l2.2 17.56h-2.1l-1.73-14.05-4.55 14.05h-1.58l-4.6-13.87-1.68 13.87Zm30.15-17.56c.32.31.48.72.48 1.23 0 .41-.1.84-.28 1.28l-4.5 9.1v5.95h-2.08v-5.4L178.1 2.55h2.14l4.8 11.32 4.37-8.81c.19-.42.28-.86.28-1.3 0-.46-.13-.81-.38-1.06l.2-.15ZM3.54 24.72c1.3-.06 2.57-.09 3.81-.09 1.27 0 2.6.13 3.99.4 1.41.26 2.8.77 4.16 1.5 1.39.71 2.55 1.64 3.5 2.79a12.5 12.5 0 0 1 2.35 4.47c.59 1.85.88 4.1.88 6.76s-.44 5.04-1.33 7.17a10.96 10.96 0 0 1-3.54 4.82c-2.92 2.18-6.45 3.27-10.58 3.27-1.45 0-2.97-.06-4.57-.18H0V24.72h3.54Zm.14 30.56a37.27 37.27 0 0 0 4.47.04 11.4 11.4 0 0 0 4.25-1.28 11 11 0 0 0 4.25-4.38c1.27-2.42 1.9-5.57 1.9-9.46 0-2.77-.33-5.16-1.01-7.17a12.73 12.73 0 0 0-2.35-4.5 9.14 9.14 0 0 0-3.14-2.3 10.35 10.35 0 0 0-2.97-1.02 29.48 29.48 0 0 0-5.4 0v30.07Zm115.5.35h-.57V24.68h1.5l18.43 28.6v-28.6h.57v30.95h-3.23l-16.7-25.65v25.65Zm47.2-30.95h.58v17.69c0 4.62-.92 8.03-2.75 10.21a8.97 8.97 0 0 1-7.17 3.23c-1.86 0-3.44-.16-4.74-.49a10.2 10.2 0 0 1-3.68-1.9c-2.36-1.83-3.54-5.51-3.54-11.05v-17.7h3.68v17.65c0 5.37.8 8.95 2.43 10.75a6.77 6.77 0 0 0 2.57 1.81c.92.32 2 .49 3.28.49a8.3 8.3 0 0 0 6.77-3.1c1.72-2.1 2.57-5.4 2.57-9.95V24.68Zm15.68 30.95h-3.67V25.12h-7.66v-.44h19.04v.44h-7.7v30.51Z"/></symbol><symbol id="twitter" viewBox="0 0 32 32"><path d="M32 5.44a11.743 11.743 0 0 1-3.718 1.153l-.062.007a7.224 7.224 0 0 0 2.868-4.009l.012-.051c-1.26.86-2.66 1.44-4.16 1.78A6.275 6.275 0 0 0 22.144 2h-.004c-3.58 0-6.54 3.3-6.54 7.34 0 .58.04 1.14.16 1.66A18.009 18.009 0 0 1 2.238 3.397L2.2 3.34a7.951 7.951 0 0 0-.9 3.7c0 2.54 1.18 4.8 2.92 6.1a5.943 5.943 0 0 1-2.985-.914l.025.014v.08c0 3.56 2.28 6.52 5.26 7.2a5.946 5.946 0 0 1-2.999.113l.039.007c.84 2.9 3.26 5.04 6.12 5.1a12.266 12.266 0 0 1-8.224 3.146c-.513 0-1.019-.031-1.516-.092L0 27.8a16.95 16.95 0 0 0 10.06 3.28c12.08 0 18.68-11.18 18.68-20.86l-.02-.96a14.133 14.133 0 0 0 3.244-3.755L32 5.44z"/></symbol><symbol id="instagramm" viewBox="0 0 32 32"><path d="M16.32 32H16c-2.52 0-4.82-.06-7.08-.2a9.427 9.427 0 0 1-5.478-2.074l.018.014a8.773 8.773 0 0 1-2.928-4.7l-.012-.06C.08 23.28.06 21.6.04 20a345.146 345.146 0 0 1 .002-8.151l-.002.211c0-1.64.04-3.32.48-5.02.5-1.98 1.5-3.58 2.94-4.76C4.96 1.04 6.86.32 8.92.2 11.037.059 13.509-.021 16-.021s4.963.08 7.414.238L23.08.2a8.848 8.848 0 0 1 8.388 6.76l.012.06c.44 1.7.46 3.4.48 5L32 16l-.04 3.96c0 1.64-.04 3.32-.48 5.02a8.793 8.793 0 0 1-2.926 4.749l-.014.011c-1.5 1.22-3.4 1.94-5.46 2.06-2.16.14-4.38.2-6.76.2zM16 29.5c2.46 0 4.74-.06 6.94-.2a6.324 6.324 0 0 0 6.112-4.897l.008-.043c.36-1.4.4-2.94.4-4.44a378.64 378.64 0 0 0-.002-8.05l.002.21a19.203 19.203 0 0 0-.423-4.586l.023.126a6.339 6.339 0 0 0-2.09-3.412l-.01-.008a6.835 6.835 0 0 0-4.006-1.5h-.014c-2.075-.141-4.498-.221-6.94-.221s-4.865.08-7.266.239l.326-.017a6.324 6.324 0 0 0-6.112 4.897l-.008.043c-.36 1.4-.4 2.94-.4 4.44a336.544 336.544 0 0 0 .002 8.049l-.002-.209c0 1.5.04 3.02.4 4.46s1.08 2.6 2.1 3.42c1.12.9 2.46 1.4 4.02 1.5 2.2.14 4.48.2 6.94.2zm-.06-5.68a7.83 7.83 0 0 1 0-15.66 7.83 7.83 0 0 1 0 15.66zm0-13.14a5.32 5.32 0 0 0 0 10.64 5.32 5.32 0 0 0 0-10.64zm8.68-5a1.88 1.88 0 0 0 0 3.76 1.88 1.88 0 0 0 0-3.76z"/></symbol><symbol id="facebook" viewBox="0 0 32 32"><path d="M22.52 0H18.9c-4.06 0-6.7 3.1-6.7 7.88v3.62H8.56c-.3 0-.56.3-.56.66v5.26c0 .36.26.66.56.66h3.64v13.26c0 .36.26.66.58.66h4.74c.32 0 .56-.3.56-.66V18.08h4.26c.32 0 .56-.3.56-.66v-5.274c0-.17-.06-.326-.161-.447l.001.001a.538.538 0 0 0-.399-.2H18.08V8.42c0-1.48.32-2.22 2-2.22h2.44c.3 0 .56-.3.56-.66V.66c0-.36-.26-.66-.56-.66z"/></symbol><symbol id="icon-toque" viewBox="0 0 32 32"><path d="M23.04 8.576a.412.412 0 0 1-.294-.153l-.001-.001a.537.537 0 0 1-.128-.345 7.744 7.744 0 0 0-1.89-5.015l.008.01A5.894 5.894 0 0 0 16.323.998h-.004a5.88 5.88 0 0 0-4.396 2.065l-.007.008a7.731 7.731 0 0 0-1.882 4.988v.004a.547.547 0 0 1-.128.346.41.41 0 0 1-.307.154h-.001a.412.412 0 0 1-.307-.153l-.001-.001a.537.537 0 0 1-.128-.345 8.8 8.8 0 0 1 2.147-5.733l-.009.011A6.697 6.697 0 0 1 16.314 0h.004c1.882 0 3.686.845 5.018 2.355a8.791 8.791 0 0 1 2.138 5.719v.002a.483.483 0 0 1-.128.346.41.41 0 0 1-.293.154h-.001z"/><path d="M24.307 19.738a.396.396 0 0 1-.307-.153l-.001-.001a.519.519 0 0 1-.128-.343v-.002c0-.128.038-.256.128-.346a.41.41 0 0 1 .293-.154h.001c1.638 0 3.2-.755 4.365-2.074a7.678 7.678 0 0 0 1.847-5.01 7.688 7.688 0 0 0-1.868-5.035l.008.01a5.84 5.84 0 0 0-4.433-2.033c-.667 0-1.308.112-1.906.317l.041-.012a.386.386 0 0 1-.321-.052l.001.001a.49.49 0 0 1-.217-.278l-.001-.003a.557.557 0 0 1 .04-.387l-.001.003a.445.445 0 0 1 .253-.229l.003-.001a6.517 6.517 0 0 1 2.101-.34c2.018 0 3.826.898 5.046 2.316l.007.009a8.734 8.734 0 0 1 2.115 5.716 8.746 8.746 0 0 1-2.113 5.713l.01-.012a6.676 6.676 0 0 1-4.959 2.381h-.008zm-15.961 0a6.67 6.67 0 0 1-4.958-2.371l-.008-.01a8.746 8.746 0 0 1-2.099-5.701 8.76 8.76 0 0 1 2.121-5.728l-.01.012a6.645 6.645 0 0 1 5.057-2.328c.755 0 1.481.126 2.158.358l-.047-.014a.49.49 0 0 1 .255.24l.001.003a.545.545 0 0 1-.053.539l.001-.002a.462.462 0 0 1-.126.127l-.002.001a.377.377 0 0 1-.335.038l.003.001a5.723 5.723 0 0 0-1.856-.302 5.837 5.837 0 0 0-4.435 2.035l-.006.008a7.677 7.677 0 0 0-1.861 5.026c0 1.911.694 3.659 1.844 5.007l-.009-.011a5.867 5.867 0 0 0 4.358 2.086h.007c.061 0 .118.014.169.039l-.002-.001a.273.273 0 0 1 .141.102.548.548 0 0 1-.001.693l.001-.001a.446.446 0 0 1-.138.114l-.002.001a.379.379 0 0 1-.166.038z"/><path d="M24.307 32H8.345a.413.413 0 0 1-.307-.14.532.532 0 0 1-.128-.348v-.011.001V19.24c0-.128.051-.256.128-.346a.41.41 0 0 1 .307-.141c.115 0 .23.051.307.128.077.102.128.23.128.358v11.776h15.091V19.239c0-.128.051-.256.128-.346a.41.41 0 0 1 .307-.141c.102 0 .218.051.294.128.09.102.128.23.128.358V31.5a.533.533 0 0 1-.128.358.41.41 0 0 1-.28.141h-.001z"/><path d="M27.29 27.226H11.341a.412.412 0 0 1-.307-.153l-.001-.001a.537.537 0 0 1-.128-.345c0-.128.051-.256.128-.346a.41.41 0 0 1 .307-.141h15.949c.128 0 .23.051.307.128.077.102.128.23.128.358s-.051.256-.128.346a.41.41 0 0 1-.307.154h-.001z"/></symbol><symbol id="icon-people" viewBox="0 0 32 32"><path d="M11.904 0C8.576 0 5.888 3.072 5.888 6.912s2.688 6.784 6.016 6.784 6.016-3.072 6.016-6.784C17.92 3.072 15.232 0 11.904 0zm0 12.544c-2.816 0-4.992-2.56-4.992-5.632 0-3.2 2.176-5.76 4.992-5.76 2.688 0 4.992 2.56 4.992 5.76 0 3.072-2.304 5.632-5.12 5.632zm12.16-9.728c-2.432 0-4.48 2.304-4.48 5.12 0 2.944 2.048 5.12 4.48 5.12 2.56 0 4.608-2.176 4.608-5.12 0-2.816-2.048-5.12-4.608-5.12zm0 9.216c-1.92 0-3.456-1.792-3.456-4.096 0-2.176 1.536-3.84 3.456-3.84 2.048 0 3.584 1.664 3.584 3.84 0 2.304-1.536 4.096-3.584 4.096z"/><path d="M32.128 20.736a8.981 8.981 0 0 0-5.066-7.145l-.054-.023s-1.28 1.024-2.944 1.024c-1.792 0-2.944-1.024-2.944-1.024s-1.28.512-2.56 1.792a12.171 12.171 0 0 0-2.623-1.888l-.065-.032s-1.664 1.408-3.968 1.28c-2.56 0-3.84-1.28-3.84-1.28s-5.504 2.048-6.656 9.216c0 0-1.28 3.84 1.536 9.344H20.48s1.28-2.56 1.536-3.968h8.704c2.176-3.84 1.28-7.296 1.28-7.296zm-12.032 10.24H3.712c-2.176-4.736-1.28-8.192-1.28-8.192.64-3.584 2.56-6.4 5.504-8.064 1.106.784 2.482 1.252 3.968 1.252s2.863-.469 3.99-1.267l-.022.014c2.912 1.671 4.944 4.592 5.371 8.011l.005.053s.896 4.224-1.28 8.064zm10.24-4.096h-8.064c.384-2.048 0-4.224 0-4.224-.384-2.56-1.408-4.736-2.944-6.4.512-.64 1.152-1.024 1.664-1.408 1.92 1.28 4.352 1.28 6.144 0 2.176 1.152 3.584 3.328 3.968 6.016 0 0 .768 2.816-.768 6.016z"/></symbol><symbol id="icon-clock" viewBox="0 0 32 32"><path d="M16 0C7.177 0 0 7.177 0 16c0 8.822 7.177 16 16 16 8.822 0 16-7.178 16-16 0-8.823-7.178-16-16-16zm0 30.934c-8.234 0-14.934-6.7-14.934-14.934S7.766 1.066 16 1.066 30.934 7.766 30.934 16 24.234 30.934 16 30.934z"/><path d="M16.534 13.878V8.469a.534.534 0 1 0-1.068 0v5.409a2.14 2.14 0 0 0-1.52 1.51l-.003.015h-3.809l-.026-.001a.534.534 0 1 0 0 1.068l.027-.001h-.001 3.809a2.13 2.13 0 0 0 2.057 1.6 2.134 2.134 0 0 0 2.134-2.132c0-.992-.684-1.819-1.6-2.058zM16 17.002a1.067 1.067 0 0 1 .002-2.136h.001a1.067 1.067 0 0 1-.002 2.136H16zm0-11.734a.533.533 0 0 0 .534-.532v-.534a.534.534 0 1 0-1.068 0v.534c0 .294.239.532.534.532zm0 21.334a.534.534 0 0 0-.534.534v.532a.534.534 0 1 0 1.068 0v-.533a.532.532 0 0 0-.532-.532h-.001zm11.734-11.2H27.2l-.026-.001a.534.534 0 1 0 0 1.068l.027-.001H27.2h.534l.026.001a.534.534 0 1 0 0-1.068l-.027.001h.001zm-22.934 0h-.534a.533.533 0 0 0 0 1.066H4.8l.026.001a.534.534 0 1 0 0-1.068l-.027.001H4.8zm19.119-8.141-.378.378a.535.535 0 0 0 .756.754l.376-.378a.533.533 0 0 0-.754-.754zM7.703 23.478l-.376.378a.533.533 0 0 0 .754.754l.378-.378a.535.535 0 0 0-.756-.754zm16.594 0a.534.534 0 1 0-.756.756l.378.376a.531.531 0 0 0 .756 0 .53.53 0 0 0 0-.756l-.378-.376zM8.081 7.261a.534.534 0 1 0-.756.756l.378.376a.53.53 0 0 0 .756 0 .53.53 0 0 0 0-.756l-.378-.376z"/></symbol><symbol id="icon-messeg" viewBox="0 0 32 32"><path d="M24.614 14.938c0-6.707-6.144-11.098-12.301-11.098C6.131 3.84-.001 8.256-.001 14.938c0 2.534.96 4.992 2.714 6.963.077.077.102.192.077.294a17.055 17.055 0 0 1-2.443 5.253l.037-.056a.889.889 0 0 0-.075.863l-.002-.006c.128.256.358.435.627.435h.013c2.624-.077 5.658-.922 7.526-3.046a.257.257 0 0 1 .258-.076h-.002c1.152.32 2.355.474 3.571.474 6.17 0 12.301-4.416 12.301-11.098zM8.96 24.525a1.1 1.1 0 0 0-1.125.344l-.001.001c-1.869 2.125-4.941 2.598-6.4 2.714.678-1.05 1.754-2.982 2.253-5.107.128-.474 0-.998-.32-1.344A9.165 9.165 0 0 1 .935 14.94v-.002c0-5.53 5.107-10.022 11.379-10.022S23.68 9.409 23.68 14.938 18.586 24.96 12.314 24.96c-1.152 0-2.266-.141-3.354-.435z"/><path d="M27.635 23.872c2.581-1.43 4.312-4.116 4.365-7.212v-.007c0-4.16-3.277-7.706-7.782-8.448-.256-.038-.499.166-.525.461-.038.294.128.563.384.614 4.058.653 6.989 3.763 6.989 7.373a7.3 7.3 0 0 1-3.814 6.253l-.038.019a1.408 1.408 0 0 0-.613 1.455l-.001-.009c.23 1.242.717 2.381 1.114 3.149-2.778-.525-3.827-2.048-4.16-2.714a1.141 1.141 0 0 0-.997-.653h-.04a8.741 8.741 0 0 1-1.536-.128c-.256-.038-.512.166-.538.461-.038.294.141.563.397.602.55.09 1.114.128 1.677.128h.038c.077 0 .154.051.192.128 1.28 2.534 4.186 3.174 5.376 3.328.269.038.512-.102.666-.358a.95.95 0 0 0 0-.832 11.278 11.278 0 0 1-1.266-3.252l-.014-.076a.258.258 0 0 1 .127-.281l.001-.001zM5.018 13.018c-.896 0-1.626.832-1.626 1.856s.73 1.869 1.626 1.869c.896 0 1.626-.832 1.626-1.869 0-1.024-.73-1.856-1.626-1.856zm0 2.649c-.384 0-.691-.358-.691-.794 0-.422.307-.781.691-.781s.691.358.691.781c0 .435-.32.794-.691.794zm4.633-2.649c-.896 0-1.626.832-1.626 1.856s.73 1.869 1.626 1.869c.896 0 1.626-.832 1.626-1.869 0-1.024-.73-1.856-1.626-1.856zm0 2.649c-.384 0-.691-.358-.691-.794 0-.422.307-.781.691-.781s.691.358.691.781c0 .435-.307.794-.691.794zm4.634-2.649c-.896 0-1.626.832-1.626 1.856s.73 1.869 1.626 1.869c.896 0 1.626-.832 1.626-1.869 0-1.024-.73-1.856-1.626-1.856zm0 2.649c-.384 0-.691-.358-.691-.794 0-.422.307-.781.691-.781s.691.358.691.781c0 .435-.307.794-.691.794zm4.633-2.649c-.896 0-1.626.832-1.626 1.856s.73 1.869 1.626 1.869c.896 0 1.626-.832 1.626-1.869 0-1.024-.73-1.856-1.626-1.856zm0 2.649c-.384 0-.691-.358-.691-.794 0-.422.32-.781.691-.781.384 0 .691.358.691.781 0 .435-.307.794-.691.794z"/></symbol><symbol id="empty-star" viewBox="0 0 34 32"><path stroke-width="1.684" d="M15.899 3.048a.842.842 0 0 1 1.598-.006l.002.006 2.526 7.731a2.498 2.498 0 0 0 2.392 1.735h8.118a.842.842 0 0 1 .507 1.514l-.002.002-6.568 4.783a2.526 2.526 0 0 0-.922 2.847l-.005-.018 2.509 7.731a.842.842 0 0 1-1.299.941l.002.002-6.568-4.783c-.412-.304-.93-.487-1.491-.487s-1.078.183-1.497.491l.007-.005-6.568 4.783a.842.842 0 0 1-1.295-.949l-.002.006 2.526-7.731a2.524 2.524 0 0 0-.919-2.825l-.007-.005-6.585-4.766a.843.843 0 0 1 .505-1.516h8.122a2.527 2.527 0 0 0 2.399-1.734l.005-.018 2.526-7.731z"/></symbol><symbol id="fill-star" viewBox="0 0 34 32"><path d="M15.242 1.566c.228-.678.858-1.158 1.6-1.158s1.372.48 1.597 1.146l.003.012 2.56 7.865a1.688 1.688 0 0 0 1.6 1.179h8.287a1.684 1.684 0 0 1 .981 3.029l-.004.003-6.686 4.884a1.682 1.682 0 0 0-.619 1.898l-.003-.012 2.56 7.865a1.684 1.684 0 0 1-2.599 1.883l.005.003-6.669-4.901c-.275-.203-.62-.324-.994-.324s-.719.122-.998.328l.005-.003-6.703 4.884a1.684 1.684 0 0 1-2.59-1.898l-.003.012 2.56-7.865a1.682 1.682 0 0 0-.618-1.883l-.005-.003-6.686-4.867a1.684 1.684 0 0 1 .993-3.031h8.264c.75 0 1.385-.49 1.603-1.167l.003-.012 2.56-7.865z"/></symbol><symbol id="icon-phone" viewBox="0 0 32 32"><path d="M29.486 21.029h-.005c-2.042 0-4.005-.335-5.839-.952l.129.038c-.914-.229-2.057 0-2.514.457L17.6 23.315c-4.114-2.286-6.857-4.571-9.143-8.914l2.971-3.429c.686-.686.914-1.829.686-2.743-.58-1.705-.914-3.668-.914-5.71v-.005C10.971 1.143 9.829 0 8.457 0H2.286C1.143 0 0 1.143 0 2.514.128 18.747 13.253 31.871 29.474 32h.012A2.537 2.537 0 0 0 32 29.486v-5.943a2.537 2.537 0 0 0-2.514-2.514z"/></symbol><symbol id="icon-geo-mark" viewBox="0 0 25 32"><path d="M12.571 0c6.926 0 12.571 5.486 12.571 12.183 0 2.674-.869 5.189-2.514 7.314l-9.28 12.114-.091.069a.948.948 0 0 1-1.463-.069L2.331 19.268v-.023A11.755 11.755 0 0 1 0 12.19v-.008C.115 5.428 5.617-.002 12.387-.002l.194.002h-.01zm0 18.743.093.001a6.698 6.698 0 0 0 6.696-6.554v-.007a6.699 6.699 0 0 0-6.696-6.561l-.098.001h.005l-.093-.001a6.698 6.698 0 0 0-6.696 6.554v.007a6.697 6.697 0 0 0 6.696 6.583l.097-.001h-.005z"/></symbol><symbol id="menu" viewBox="0 0 32 32"><path d="M1.067 7.467h29.867a1.067 1.067 0 0 1 0 2.134H1.067a1.067 1.067 0 0 1 0-2.134zm0 7.466h29.867a1.067 1.067 0 0 1 0 2.134H1.067a1.067 1.067 0 0 1 0-2.134zm0 7.467h29.867a1.067 1.067 0 0 1 0 2.134H1.067a1.067 1.067 0 0 1 0-2.134z"/></symbol><symbol id="icon-close" viewBox="0 0 32 32"><path d="M30.354 32a1.646 1.646 0 0 0 1.162-2.81L2.812.481A1.647 1.647 0 0 0 .483 2.81l28.708 28.708c.322.32.743.484 1.164.484z"/><path d="M1.644 32h.003c.454 0 .865-.185 1.161-.483L31.517 2.811A1.647 1.647 0 0 0 29.188.482L.479 29.191A1.645 1.645 0 0 0 1.643 32z"/></symbol></defs></svg>